<svg t="1706515657676" class="icon" viewBox="0 0 1024 1024" version="1.1" xmlns="http://www.w3.org/2000/svg" p-id="7169" width="248" height="248"><path d="M692.224 942.08H71.68C36.864 942.08 8.192 913.408 8.192 878.592V184.32c0-34.816 28.672-61.44 63.488-61.44h364.544l151.552 266.24h370.688c34.816 0 63.488 28.672 63.488 63.488v169.984h-63.488V450.56h-409.6L399.36 184.32h-327.68v696.32h620.544v61.44z" fill="#e6e6e6" p-id="7170"></path><path d="M770.048 757.76H1024v63.488H770.048z" fill="#e6e6e6" p-id="7171"></path><path d="M866.304 661.504h63.488v253.952h-63.488zM958.464 419.84h-63.488v-161.792H458.752v-61.44h436.224c34.816 0 63.488 28.672 63.488 63.488v159.744z" fill="#e6e6e6" p-id="7172"></path></svg>