<svg t="1706499917924" class="icon" viewBox="0 0 1024 1024" version="1.1" xmlns="http://www.w3.org/2000/svg" p-id="5257" width="248" height="248"><path d="M512 128v85.333333c164.693333 0 298.666667 133.973333 298.666667 298.666667s-133.973333 298.666667-298.666667 298.666667-298.666667-133.973333-298.666667-298.666667c0-79.765333 31.04-154.773333 87.466667-211.178667l-60.352-60.352A382.826667 382.826667 0 0 0 128.042667 512c0 212.074667 171.925333 384 384 384 212.053333 0 384-171.925333 384-384S724.053333 128 512 128" fill="#e6e6e6" p-id="5258"></path><path d="M375.786667 380.608l-83.989334 15.146667-22.677333-125.973334L143.146667 292.48 128 208.490667 337.962667 170.666667z" fill="#e6e6e6" p-id="5259"></path></svg>